# xmcd
#
# Track frame offsets: 
#        150
#        21572
#        42736
#        65389
#        87642
#        107209
#        128451
#        146321
#        165704
#        186251
#        212043
#        227539
#        247091
#        269017
#        289432
#        309279
#        329814
#
# Disc length: 4624 seconds
#
# Revision: 2
# Processed by: cddbd v1.5.2PL0 Copyright (c) Steve Scherf et al.
# Submitted via: ExactAudioCopy v0.95a5
#
DISCID=0e120e11
DTITLE=Various Artist - All My Loving 中文版_B
DYEAR=2002
DGENRE=Other
TTITLE0=永邦-威尼斯的泪
TTITLE1=周蕙-体温
TTITLE2=羽泉-最美
TTITLE3=苏永康-爱一个人好难
TTITLE4=李圣杰-痴心绝对
TTITLE5=候湘婷-暖昧
TTITLE6=莫文蔚-他不爱我
TTITLE7=林宸希-不再问
TTITLE8=庾澄庆-情非得已
TTITLE9=周传雄-黄昏
TTITLE10=陶诘-月亮代表谁的心
TTITLE11=4 in love-一千零一个愿望
TTITLE12=迪克牛仔-有多少爱可以重来
TTITLE13=本多 RURU-美丽心情
TTITLE14=杨坤-无所谓
TTITLE15=张信哲-从开始到现在
TTITLE16=纪如景-值得一辈子去爱
EXTD=
EXTT0=
EXTT1=
EXTT2=
EXTT3=
EXTT4=
EXTT5=
EXTT6=
EXTT7=
EXTT8=
EXTT9=
EXTT10=
EXTT11=
EXTT12=
EXTT13=
EXTT14=
EXTT15=
EXTT16=
PLAYORDER=
